<?xml version="1.0" standalone="no"?>
<!DOCTYPE svg PUBLIC "-//W3C//DTD SVG 20010904//EN"
 "http://www.w3.org/TR/2001/REC-SVG-20010904/DTD/svg10.dtd">
<svg version="1.0" xmlns="http://www.w3.org/2000/svg"
 width="300.000000pt" height="37.000000pt" viewBox="0 0 300.000000 37.000000"
 preserveAspectRatio="xMidYMid meet">
<metadata>
Created by potrace 1.10, written by Peter Selinger 2001-2011
</metadata>
<g transform="translate(0.000000,37.000000) scale(0.100000,-0.100000)"
fill="#000000" stroke="none">
<path d="M1636 351 c-4 -6 5 -31 19 -55 36 -62 36 -103 -1 -133 -16 -12 -32
-23 -36 -23 -4 0 -14 16 -22 35 -21 50 -104 175 -116 175 -18 0 -11 -24 21
-70 57 -84 87 -153 82 -187 -6 -36 22 -82 50 -83 21 0 21 6 3 58 l-15 41 35
21 c19 12 40 32 47 46 12 22 14 20 55 -61 32 -62 49 -85 63 -85 14 0 19 7 19
29 0 20 -5 28 -16 27 -10 -1 -39 40 -84 122 -72 132 -93 161 -104 143z"/>
<path d="M2567 336 c-28 -20 -37 -22 -41 -10 -8 22 -44 17 -71 -11 -32 -31
-34 -91 -4 -129 15 -19 18 -31 11 -38 -16 -16 -30 -2 -66 71 -19 37 -40 72
-48 79 -33 27 -58 -29 -48 -105 7 -60 -1 -69 -20 -20 -33 85 -53 118 -64 107
-8 -8 -6 -23 7 -58 45 -115 27 -128 -22 -17 -58 131 -101 124 -111 -17 l-5
-83 -24 39 c-13 21 -25 54 -27 73 -3 39 -30 87 -44 78 -30 -19 22 -156 79
-209 44 -42 55 -26 61 87 l6 92 37 -78 c37 -79 58 -98 85 -80 12 7 21 3 37
-15 37 -43 47 -22 40 86 l-6 97 36 -67 c42 -81 70 -103 110 -88 19 7 39 7 66
0 33 -9 47 -8 86 10 33 14 43 24 36 31 -8 8 -17 8 -32 -1 -12 -6 -41 -10 -64
-8 l-42 3 4 45 c1 25 4 47 6 49 2 2 16 -6 32 -16 42 -29 104 -50 235 -77 204
-43 178 -53 -86 -33 -35 2 -46 -18 -14 -27 13 -4 79 -10 148 -13 105 -5 128
-3 138 10 27 32 -27 56 -243 106 -98 23 -180 59 -180 81 0 15 40 45 72 55 33
9 73 -34 73 -80 0 -38 14 -48 23 -15 8 29 -10 93 -29 107 -29 21 -97 16 -137
-11z m-58 -63 c-1 -21 -4 -51 -8 -68 l-6 -30 -18 25 c-21 30 -22 74 -1 94 25
25 34 19 33 -21z"/>
<path d="M215 323 c-3 -16 -24 -55 -46 -89 l-40 -61 -41 7 c-44 8 -93 -3 -84
-19 3 -5 28 -12 55 -16 l50 -7 -30 -40 c-36 -50 -38 -73 -6 -64 12 3 27 6 32
6 6 0 4 4 -3 9 -22 13 33 91 65 91 28 0 130 -45 197 -88 46 -29 66 -33 66 -12
0 5 -14 16 -30 25 -26 14 -89 92 -79 98 62 35 67 36 84 11 12 -18 13 -29 5
-44 -8 -16 -5 -25 19 -52 28 -31 33 -33 96 -33 60 0 69 3 88 26 l22 26 40 -18
c51 -24 80 -24 103 -1 18 18 20 18 46 -5 36 -31 95 -31 123 0 26 28 34 63 23
93 -7 17 -6 24 3 24 6 0 22 -23 34 -50 27 -61 69 -90 134 -90 59 0 99 29 99
71 0 16 -4 29 -10 29 -5 0 -10 -9 -10 -19 0 -52 -92 -71 -144 -30 -26 21 -61
77 -53 85 2 3 30 9 62 14 68 11 245 68 245 79 0 18 -15 19 -59 2 -50 -20 -150
-46 -220 -56 l-44 -7 6 61 c5 48 4 61 -7 61 -16 0 -26 -30 -26 -81 0 -49 -23
-58 -55 -21 -25 29 -47 24 -28 -7 10 -16 8 -17 -14 -13 -19 4 -24 1 -21 -9 2
-8 18 -15 35 -17 24 -2 34 -10 41 -31 28 -80 -73 -113 -118 -39 -10 17 -17 35
-14 40 7 10 -14 48 -26 48 -6 0 -10 -8 -10 -17 0 -14 -5 -13 -23 9 -29 34 -58
48 -99 48 -38 0 -58 -15 -58 -42 0 -10 -8 -21 -17 -24 -10 -3 -35 -13 -55 -24
-22 -10 -40 -14 -44 -9 -3 5 -9 7 -14 4 -5 -3 -27 29 -50 70 -23 41 -45 75
-50 75 -18 0 -21 -21 -6 -42 9 -12 16 -28 16 -34 0 -15 -61 -37 -71 -27 -13
13 -49 112 -49 133 0 30 -27 24 -35 -7z m25 -65 c0 -7 7 -26 15 -42 9 -16 14
-31 12 -33 -3 -2 -27 -6 -56 -10 l-51 -6 32 51 c33 51 48 63 48 40z m453 -58
c17 -13 24 -27 20 -37 -5 -12 -1 -14 14 -9 17 5 23 1 31 -23 13 -37 3 -45 -43
-37 -45 9 -82 40 -90 76 -12 53 21 67 68 30z m-387 -88 c-2 -1 -20 5 -42 15
l-39 17 30 6 c24 5 32 2 42 -15 6 -11 10 -21 9 -23z m294 29 c20 -38 -15 -71
-75 -71 -49 0 -40 35 20 72 38 23 42 22 55 -1z"/>
<path d="M1790 250 c-55 -55 4 -148 112 -174 27 -6 58 13 58 36 0 5 16 -4 35
-21 20 -17 42 -31 50 -31 25 0 16 25 -15 44 -17 9 -48 42 -70 72 -59 79 -133
111 -170 74z m90 -38 c24 -20 24 -50 -2 -84 -12 -17 -15 -16 -45 8 -32 24 -45
69 -26 87 12 13 51 7 73 -11z m50 -87 c0 -16 -6 -25 -15 -25 -16 0 -19 9 -9
34 9 25 24 19 24 -9z"/>
</g>
</svg>
