<?xml version="1.0" standalone="no"?>
<!DOCTYPE svg PUBLIC "-//W3C//DTD SVG 20010904//EN"
 "http://www.w3.org/TR/2001/REC-SVG-20010904/DTD/svg10.dtd">
<svg version="1.0" xmlns="http://www.w3.org/2000/svg"
 width="2806.000000pt" height="999.000000pt" viewBox="0 0 2806.000000 999.000000"
 preserveAspectRatio="xMidYMid meet">
<metadata>
Created by potrace 1.16, written by Peter Selinger 2001-2019
</metadata>
<g transform="translate(0.000000,999.000000) scale(0.100000,-0.100000)"
fill="#000000" stroke="none">
<path d="M20930 8081 c-86 -28 -126 -68 -179 -181 -96 -205 -126 -396 -125
-790 1 -281 13 -445 54 -714 11 -70 17 -132 14 -137 -3 -5 -17 -9 -30 -9 -33
0 -210 183 -275 284 -76 120 -253 265 -373 307 -32 11 -93 25 -135 31 -64 9
-85 8 -131 -5 -102 -30 -172 -117 -199 -246 -26 -125 -11 -324 35 -442 46
-120 223 -327 337 -393 61 -36 214 -90 310 -110 42 -9 121 -16 175 -16 91 0
104 3 161 31 66 33 118 90 128 141 4 22 12 28 45 33 22 4 41 5 43 3 2 -2 20
-55 39 -118 103 -339 243 -594 394 -715 81 -65 230 -138 285 -139 81 -2 127
43 127 124 0 74 -48 142 -255 360 -117 122 -253 284 -403 476 l-32 41 93 38
c205 84 356 180 482 310 61 62 86 79 186 127 187 89 288 161 380 271 58 69 63
104 23 136 -34 27 -54 26 -92 -1 -115 -83 -244 -169 -281 -188 l-44 -22 7 34
c21 107 28 186 24 298 -4 114 -8 136 -45 245 -148 437 -389 816 -581 914 -48
24 -124 35 -162 22z m121 -195 c84 -63 190 -217 292 -421 118 -237 191 -434
207 -557 14 -118 -8 -349 -40 -408 -9 -17 -79 -46 -260 -107 -80 -27 -413
-113 -418 -108 -8 8 -33 268 -42 440 -23 426 -3 778 56 974 24 81 80 198 100
210 32 18 59 12 105 -23z m-1135 -1201 c63 -19 152 -76 227 -146 55 -51 58
-56 48 -82 -14 -35 -14 -148 0 -207 17 -75 85 -204 139 -263 49 -54 135 -107
172 -107 26 0 22 -17 -7 -36 -21 -14 -44 -16 -133 -11 -114 5 -238 35 -337 82
-106 51 -253 211 -295 321 -58 156 -43 358 33 442 25 27 79 29 153 7z m1305
-515 c-42 -27 -265 -120 -323 -134 -23 -5 -27 -2 -33 25 -4 17 -5 32 -3 34 1
2 78 22 170 44 91 23 177 45 190 50 43 18 43 11 -1 -19z m-163 -582 c109 -138
332 -435 332 -443 0 -10 -76 33 -126 73 -82 65 -169 182 -234 316 -57 118 -76
166 -67 166 3 0 45 -51 95 -112z"/>
<path d="M16197 7680 c-47 -37 -52 -71 -52 -390 0 -162 4 -331 8 -375 l9 -80
-104 -34 c-57 -18 -130 -44 -163 -58 -55 -22 -61 -23 -70 -7 -41 69 -118 123
-177 124 -15 0 -53 -10 -84 -21 -109 -41 -215 -182 -260 -345 l-17 -61 -42 5
c-90 10 -133 -78 -119 -243 3 -44 15 -107 25 -139 l18 -60 -50 -98 c-31 -59
-72 -120 -103 -153 -49 -53 -54 -55 -102 -55 -58 0 -144 38 -207 93 l-39 32
42 75 c24 41 62 107 86 145 85 137 107 199 112 308 4 89 2 101 -22 151 -35 72
-153 184 -237 225 -164 80 -299 61 -356 -49 -36 -70 -46 -149 -40 -315 6 -181
21 -240 107 -411 33 -66 60 -123 60 -126 0 -3 -10 -8 -22 -11 -46 -12 -102 75
-158 241 -53 161 -61 219 -67 487 -3 138 -9 258 -14 267 -15 28 -67 50 -99 43
-16 -4 -40 -19 -53 -35 -21 -24 -26 -44 -32 -127 -8 -111 -34 -239 -71 -352
-28 -85 -164 -354 -178 -353 -5 0 -57 103 -116 229 -113 245 -204 410 -259
475 -61 71 -141 87 -216 44 -33 -20 -48 -38 -70 -88 -26 -57 -29 -75 -33 -199
-4 -127 6 -224 44 -454 6 -36 11 -43 -103 133 -45 70 -119 185 -165 256 -53
81 -93 133 -112 143 -33 17 -71 10 -102 -18 l-21 -20 -28 48 c-60 103 -148
223 -200 272 -96 91 -194 117 -334 87 -106 -22 -157 -50 -237 -130 -84 -84
-145 -198 -170 -316 -16 -77 -14 -249 5 -331 l8 -37 -83 72 c-53 44 -84 78
-84 91 0 28 -44 118 -77 160 -65 82 -228 185 -354 223 -99 30 -243 45 -320 33
-88 -15 -121 -25 -184 -59 l-54 -30 -11 33 c-40 120 -278 391 -435 494 -221
144 -353 112 -402 -97 -28 -118 -25 -404 5 -532 12 -52 22 -97 22 -101 0 -4
-15 -3 -32 2 -78 23 -214 50 -302 59 -112 13 -199 1 -261 -35 -39 -22 -127
-110 -152 -150 -11 -18 -12 -16 -12 16 -1 53 -40 89 -97 89 -62 0 -104 -40
-159 -154 -67 -140 -79 -195 -79 -381 0 -188 16 -267 88 -437 24 -60 42 -108
39 -108 -12 0 -82 47 -163 109 -47 36 -157 136 -245 223 -126 123 -164 167
-179 205 -50 125 -115 173 -189 138 -35 -17 -67 -65 -67 -102 0 -30 45 -115
95 -178 l47 -60 -5 -66 c-9 -113 -46 -174 -137 -227 -40 -24 -55 -27 -125 -25
-44 1 -112 8 -151 16 -70 15 -220 70 -237 87 -5 4 17 22 50 39 240 128 432
377 436 566 2 49 -3 69 -25 107 -47 79 -168 153 -353 213 -141 46 -248 65
-374 65 l-106 0 -23 73 c-97 300 -259 491 -539 632 -252 127 -538 200 -823
212 -339 13 -725 -47 -1080 -169 -220 -76 -335 -144 -415 -245 -106 -136 -104
-283 7 -454 54 -85 151 -179 334 -327 187 -150 374 -315 476 -419 l78 -78 -16
-50 c-21 -68 -13 -169 20 -241 76 -166 334 -399 544 -489 130 -57 196 -68 357
-62 198 8 348 48 540 145 239 119 371 244 472 448 l46 93 60 -55 c276 -255
682 -376 909 -271 116 53 200 144 235 254 l16 52 71 -66 c203 -188 418 -328
535 -348 83 -14 143 40 155 138 8 68 -9 133 -72 283 -73 172 -84 229 -80 404
3 120 8 155 26 200 24 61 81 164 87 158 3 -2 -3 -26 -12 -53 -23 -71 -23 -288
0 -375 19 -70 74 -193 107 -241 12 -16 27 -48 33 -71 10 -35 20 -47 52 -63 22
-11 65 -39 94 -63 109 -87 214 -134 364 -163 111 -22 305 -26 389 -8 76 16
166 67 199 112 33 46 51 123 42 180 l-6 41 52 -49 c71 -67 163 -130 219 -150
26 -9 86 -19 134 -22 107 -7 156 9 212 66 l39 40 32 -24 c46 -36 211 -111 281
-129 103 -26 258 -39 336 -26 129 20 229 92 283 206 16 32 29 60 30 62 1 1 23
-7 49 -18 l47 -20 88 -182 c48 -101 110 -230 137 -288 99 -214 132 -255 200
-253 66 2 97 60 54 103 -11 11 -44 87 -74 168 -29 81 -74 194 -100 252 -47
107 -53 126 -37 115 6 -3 58 -10 116 -15 130 -13 278 0 361 31 117 44 202 158
225 301 13 80 -2 207 -41 355 -36 133 -33 130 116 -122 214 -361 267 -440 307
-462 49 -27 109 -8 136 44 24 46 8 181 -61 523 -34 173 -42 230 -46 364 -3
112 -1 157 6 152 30 -18 121 -201 314 -626 43 -96 88 -185 100 -197 12 -12 37
-26 56 -29 54 -10 97 18 128 85 15 31 62 127 105 213 l77 156 37 -111 c64
-198 119 -289 214 -355 48 -33 60 -37 115 -37 51 0 71 6 118 33 l57 33 56 -46
c177 -143 380 -163 501 -48 44 41 97 111 129 168 16 28 30 52 32 54 1 2 21
-13 43 -33 72 -65 153 -43 179 50 15 56 13 112 -9 254 -11 69 -20 152 -20 184
0 58 0 59 19 42 38 -34 89 3 62 46 -12 19 -11 23 10 39 13 10 58 37 100 59
l77 40 22 -82 c53 -197 79 -359 88 -559 9 -177 12 -201 34 -245 47 -94 127
-118 190 -57 41 39 108 164 108 201 0 21 -8 37 -26 51 -31 25 -40 25 -76 7
-34 -18 -38 -9 -38 78 0 124 -44 376 -101 571 -11 39 -22 77 -25 87 -4 13 21
25 133 62 76 25 143 46 150 46 6 0 21 -43 33 -97 26 -113 84 -313 164 -565 30
-97 85 -283 120 -412 74 -267 96 -326 138 -361 62 -52 133 -42 192 27 57 66
160 282 246 513 114 309 168 414 284 558 100 123 113 153 103 228 -7 52 -32
89 -60 89 -33 0 -47 -19 -47 -64 -1 -53 -13 -72 -83 -136 -75 -69 -168 -193
-219 -294 -23 -45 -77 -173 -120 -286 -80 -207 -176 -407 -188 -393 -4 5 -24
69 -45 143 -20 74 -68 235 -106 357 -139 454 -218 763 -194 763 2 0 66 18 142
40 76 23 275 77 443 121 390 103 551 153 783 245 298 117 468 214 581 332 47
49 53 94 17 124 -35 28 -56 23 -144 -36 -231 -153 -629 -302 -1217 -456 -107
-28 -295 -81 -418 -116 -123 -36 -226 -63 -230 -59 -8 8 -9 185 -2 485 5 209
4 227 -14 257 -33 55 -102 70 -149 33z m-10362 -570 c209 -44 449 -144 589
-244 110 -79 208 -192 264 -308 28 -57 60 -133 72 -170 l22 -67 -65 -63 c-83
-80 -102 -133 -95 -272 6 -109 32 -180 112 -305 l54 -84 -19 -54 c-71 -209
-219 -359 -464 -474 -218 -102 -450 -144 -603 -108 -200 47 -534 312 -577 458
-5 18 28 -8 113 -87 179 -166 289 -230 347 -204 33 15 48 54 34 90 -5 15 -102
117 -215 227 -112 110 -204 205 -204 211 0 17 129 136 197 182 196 133 441
188 658 147 99 -19 117 -17 138 17 20 31 0 64 -55 88 -103 44 -150 54 -258 53
-287 -1 -535 -106 -748 -315 l-62 -61 -93 89 c-117 114 -216 197 -443 367 -99
74 -211 168 -248 207 -77 82 -126 173 -126 236 0 51 43 122 102 165 154 113
634 258 996 299 137 15 463 4 577 -20z m4146 -228 c177 -140 339 -364 339
-467 0 -14 -9 -53 -20 -86 -12 -33 -25 -91 -29 -128 -6 -47 -17 -82 -37 -112
-40 -62 -156 -209 -165 -209 -16 0 -99 160 -99 192 0 57 -20 109 -59 152 -70
76 -131 318 -131 520 0 99 13 217 26 238 8 13 98 -38 175 -100z m2208 -176
c85 -44 259 -308 356 -541 92 -218 128 -432 91 -529 -39 -102 -119 -132 -326
-123 -135 6 -305 44 -327 73 -14 19 -108 268 -117 309 -6 29 -4 32 56 60 70
34 84 50 74 89 -10 41 -42 50 -111 32 -33 -8 -61 -13 -64 -11 -12 13 -30 152
-31 237 0 77 5 110 23 160 30 83 88 169 136 203 74 51 184 70 240 41z m2400
-147 c62 -36 137 -108 151 -145 25 -65 5 -121 -118 -326 l-70 -117 -30 57
c-74 140 -109 302 -96 441 10 112 15 121 66 121 30 0 60 -10 97 -31z m-3764
-129 c-8 -16 -15 -40 -15 -53 0 -44 30 -126 53 -142 30 -21 70 -19 92 5 10 11
22 20 27 20 6 0 70 -29 143 -64 l133 -65 -5 -98 c-4 -86 -2 -102 16 -130 11
-18 32 -35 46 -39 45 -11 72 9 95 75 19 52 25 59 40 51 10 -5 27 -22 38 -37
l20 -27 -26 -34 c-19 -25 -27 -49 -30 -93 -5 -72 17 -121 91 -196 l50 -52 -12
-41 c-15 -52 -65 -108 -116 -131 -50 -23 -151 -25 -269 -4 -109 19 -192 52
-280 112 l-68 47 5 48 c8 63 -8 156 -32 188 -10 14 -22 40 -26 58 -7 33 -38
62 -66 62 -30 0 -60 -34 -72 -84 l-13 -48 -56 84 c-70 105 -101 168 -122 240
-16 53 -16 59 5 139 43 171 125 237 297 238 l73 1 -16 -30z m-1429 -185 c67
-14 166 -40 219 -57 l97 -33 30 -72 31 -73 -28 -40 c-87 -125 -397 -343 -558
-392 -43 -13 -46 -11 -101 87 -67 118 -96 263 -76 388 12 80 26 109 72 156 67
68 122 75 314 36z m-2216 -45 c153 -25 362 -106 428 -168 l32 -30 -16 -53
c-40 -140 -210 -314 -387 -394 -104 -48 -110 -47 -184 31 l-64 69 8 75 c10 94
10 303 0 397 l-7 72 32 4 c62 7 93 7 158 -3z m3267 -480 c29 -41 80 -106 113
-144 33 -38 60 -75 60 -81 0 -57 -128 -44 -230 23 -52 35 -220 197 -220 213 0
5 35 51 77 104 l76 96 36 -68 c20 -37 60 -102 88 -143z m-542 59 l38 -62 -18
-31 c-10 -17 -28 -42 -40 -56 -12 -14 -25 -36 -28 -49 -7 -30 14 -84 40 -102
31 -22 55 -66 48 -88 -10 -33 -80 -54 -200 -59 -145 -6 -274 16 -374 64 l-74
35 69 33 c160 76 364 222 451 321 26 30 48 55 49 55 1 0 18 -28 39 -61z"/>
<path d="M25467 4860 c-120 -30 -207 -117 -259 -256 -19 -52 -22 -79 -22 -224
0 -129 4 -179 18 -229 37 -136 119 -276 205 -354 48 -43 52 -39 -89 -88 -70
-24 -114 -33 -165 -33 l-69 -1 -17 45 c-10 25 -72 214 -139 420 -73 224 -130
384 -142 397 -42 45 -115 36 -143 -17 -8 -16 -18 -89 -25 -181 -19 -280 -51
-369 -183 -506 -68 -71 -85 -83 -112 -83 -28 0 -33 4 -39 31 -3 17 -6 46 -6
65 0 44 -30 138 -155 481 -60 164 -113 295 -126 309 -45 47 -113 39 -150 -18
-19 -30 -20 -43 -15 -163 12 -300 102 -576 245 -753 28 -34 51 -66 51 -71 0
-4 -12 -20 -26 -35 -33 -33 -79 -34 -188 -6 -232 61 -461 208 -555 355 -35 56
-71 161 -71 209 0 27 4 31 27 33 32 1 63 35 63 68 0 13 -16 42 -35 65 -40 48
-38 41 -23 77 22 51 36 62 70 53 90 -26 201 -133 255 -247 30 -63 36 -88 49
-215 13 -133 16 -145 40 -166 27 -23 56 -23 80 2 30 30 49 121 48 236 0 100
-3 124 -26 182 -62 156 -180 288 -321 358 -73 36 -95 43 -149 43 -76 1 -112
-16 -162 -75 l-36 -42 -47 54 c-96 111 -118 130 -155 130 -42 0 -78 -34 -78
-72 0 -26 180 -419 205 -448 7 -8 14 -31 17 -51 4 -35 2 -36 -39 -48 -57 -15
-138 -13 -367 7 l-189 17 -23 85 c-12 47 -53 200 -90 340 -54 205 -72 259 -91
278 -45 42 -104 20 -123 -46 -25 -91 -6 -331 43 -532 l23 -95 -188 2 -189 2
-49 63 c-59 75 -155 151 -230 179 -84 32 -194 24 -278 -21 -76 -40 -176 -143
-225 -232 -76 -135 -127 -352 -113 -484 16 -152 100 -298 228 -396 26 -20 44
-39 39 -43 -26 -15 -110 -22 -183 -14 -141 16 -241 83 -321 216 l-38 62 30 53
c52 93 76 190 76 308 0 92 -3 112 -26 160 -87 187 -230 200 -285 27 -24 -73
-31 -356 -11 -450 l14 -68 -26 -18 c-14 -10 -51 -31 -81 -47 -47 -24 -67 -28
-135 -28 -200 0 -344 107 -374 278 -12 70 -13 265 -1 311 l8 30 1 -32 c1 -43
37 -68 74 -54 15 6 29 21 32 33 2 13 10 157 15 322 12 329 12 333 -49 354 -77
27 -133 -57 -195 -288 -50 -190 -67 -294 -73 -460 -9 -253 31 -397 144 -508
103 -102 247 -156 418 -156 108 1 186 23 273 78 l41 25 26 -45 c35 -59 127
-152 186 -186 90 -53 163 -71 294 -72 109 0 126 2 187 27 37 16 89 40 115 55
45 25 55 26 149 23 55 -1 119 2 141 8 55 15 152 88 193 144 l33 46 37 -57 c45
-71 98 -118 168 -150 102 -46 226 -27 294 45 14 16 51 63 81 106 l56 77 35
-57 c69 -114 151 -190 227 -211 49 -13 83 -5 115 26 23 24 26 33 22 87 -4 68
-14 84 -124 219 -73 90 -92 103 -122 87 -17 -9 -23 -4 -45 47 -14 31 -39 92
-56 136 -27 70 -29 80 -16 100 12 19 12 29 0 76 -8 30 -15 57 -15 60 0 3 51 2
112 -2 62 -3 159 -7 216 -7 l102 -1 0 -44 c0 -116 185 -631 252 -703 52 -56
137 -47 179 19 19 31 20 42 15 183 -7 167 -17 223 -42 242 -41 30 -93 -3 -95
-59 0 -23 -15 10 -50 112 -45 130 -71 220 -65 220 2 0 20 -25 40 -55 158 -228
551 -427 819 -414 89 5 144 36 185 104 l27 44 68 1 c93 0 125 17 229 123 95
96 166 200 194 287 21 62 22 65 28 59 3 -2 30 -87 61 -189 79 -256 104 -300
187 -335 85 -35 222 -5 412 89 l128 64 94 -51 c51 -29 93 -54 94 -57 0 -3 -35
-18 -77 -34 -103 -38 -336 -157 -395 -201 -66 -48 -100 -104 -106 -169 -8 -96
46 -165 164 -209 55 -20 81 -22 349 -25 512 -7 854 35 994 120 91 56 95 170 9
243 -36 31 -218 119 -390 191 -65 27 -114 51 -110 55 4 4 78 30 165 59 105 35
160 58 167 70 25 46 0 90 -51 90 -16 0 -138 -30 -270 -66 l-240 -65 -92 46
c-282 143 -437 301 -493 505 -21 78 -25 293 -6 356 31 106 96 154 211 154 l74
0 41 -43 c88 -91 184 -328 194 -474 4 -76 3 -86 -27 -148 -34 -74 -30 -105 14
-105 69 0 130 233 105 403 -23 155 -113 375 -187 458 -56 62 -103 82 -203 85
-47 2 -102 -1 -123 -6z m-3909 -657 c52 -24 142 -119 175 -184 52 -105 32
-233 -69 -429 -53 -103 -77 -139 -133 -194 l-69 -69 -46 16 c-104 36 -198 132
-238 243 -44 127 -3 345 93 489 42 63 106 121 149 138 31 11 103 6 138 -10z
m560 -300 c165 -83 187 -86 187 -27 0 23 -9 35 -50 61 l-50 33 46 0 c26 0 51
-6 56 -12 6 -7 23 -51 38 -98 15 -47 52 -149 82 -228 62 -164 68 -133 -41
-252 -83 -91 -107 -107 -151 -102 -60 7 -119 85 -193 254 -34 78 -37 91 -42
213 -5 119 -7 134 -32 177 -16 26 -28 49 -28 52 0 15 36 1 178 -71z m4091
-519 c225 -90 349 -147 391 -182 l25 -21 -37 -15 c-107 -45 -417 -69 -833 -64
-258 3 -296 6 -345 23 -30 11 -55 25 -54 30 1 20 102 87 219 145 122 60 379
168 404 169 7 1 110 -38 230 -85z"/>
<path d="M18460 4662 c-78 -78 -114 -281 -114 -657 l-1 -250 -36 45 c-94 119
-245 215 -376 240 -38 8 -113 11 -195 8 -115 -4 -143 -9 -208 -33 -62 -24 -86
-40 -141 -95 l-65 -66 -26 28 c-29 31 -81 38 -113 14 -16 -11 -25 -10 -64 8
-39 18 -64 21 -166 20 -249 -2 -433 -77 -617 -253 l-78 -73 -11 28 c-6 16 -17
47 -25 69 -29 78 -85 110 -143 81 -39 -21 -51 -44 -51 -100 0 -50 28 -133 82
-241 30 -59 36 -84 41 -160 3 -49 15 -126 26 -169 12 -44 20 -81 18 -83 -2 -1
-36 8 -76 22 -138 47 -257 135 -374 278 -88 107 -220 288 -214 293 2 2 91 31
198 65 289 90 409 156 409 224 0 24 -34 65 -55 65 -6 0 -71 -20 -145 -46 -216
-72 -503 -155 -511 -147 -4 5 -24 38 -44 75 -36 66 -37 70 -30 140 12 127 -37
346 -102 457 -77 133 -142 171 -206 120 -41 -32 -49 -79 -32 -194 21 -138 46
-225 99 -339 l45 -97 -25 -82 c-37 -117 -64 -176 -83 -181 -9 -3 -65 -14 -124
-26 -89 -16 -148 -20 -333 -20 -211 0 -225 -1 -244 -20 -25 -25 -26 -62 -2
-83 20 -18 278 -131 409 -178 51 -19 93 -38 93 -42 0 -22 -102 -136 -244 -272
-144 -138 -156 -153 -156 -185 0 -43 21 -76 55 -84 29 -7 95 17 95 36 0 7 35
38 77 68 127 91 281 254 358 378 1 1 14 -2 29 -8 15 -5 141 -41 279 -79 374
-103 454 -131 549 -192 81 -51 226 -109 275 -109 14 0 37 12 52 28 l28 27 64
-103 c89 -144 187 -273 277 -365 111 -113 151 -129 199 -81 22 22 25 32 21 72
-6 56 -48 164 -126 323 l-57 116 35 -15 c44 -18 199 -11 280 13 143 44 270
125 325 209 17 25 32 46 35 46 3 0 16 -28 29 -62 40 -104 226 -465 306 -593
41 -66 86 -143 100 -171 33 -67 58 -88 102 -88 53 0 87 43 79 100 -4 35 -81
243 -185 503 l-22 54 37 -32 c20 -18 48 -37 63 -43 39 -15 198 -11 266 7 139
37 284 145 339 252 14 28 31 84 37 123 l12 71 56 -7 c52 -6 61 -12 126 -73 85
-81 166 -131 260 -163 60 -20 90 -23 205 -23 106 0 143 4 173 17 87 39 149
109 192 213 l23 57 51 -90 c52 -91 129 -175 191 -207 39 -20 92 -15 123 12 26
23 57 98 59 139 2 44 -17 64 -58 64 -25 0 -38 -7 -51 -26 l-17 -27 -33 39
c-19 21 -62 94 -97 163 -70 139 -221 488 -255 593 -25 75 -56 108 -103 108
-37 0 -88 -48 -88 -82 0 -41 29 -125 102 -297 l71 -165 -7 -84 c-7 -99 -21
-136 -73 -192 -51 -58 -85 -70 -190 -70 -140 1 -232 32 -327 110 l-45 38 53
35 c122 81 205 199 255 361 29 93 29 252 1 353 -51 186 -158 376 -288 514 -94
99 -160 139 -230 139 -38 0 -50 -5 -82 -38z m185 -204 c84 -87 154 -196 206
-323 91 -221 92 -343 4 -529 -29 -61 -46 -83 -98 -124 -102 -81 -102 -81 -137
-25 -43 68 -86 184 -107 288 -22 109 -25 472 -4 600 16 108 39 185 53 185 7 0
44 -33 83 -72z m-739 -579 c136 -25 276 -133 339 -263 31 -63 72 -193 63 -201
-2 -2 -30 2 -63 7 -144 24 -332 -15 -443 -91 -112 -77 -160 -146 -164 -236 -3
-54 1 -59 -89 142 -47 107 -66 160 -59 167 12 12 13 49 1 62 -22 22 -71 134
-71 161 0 32 55 131 98 176 70 74 229 105 388 76z m-803 -132 c49 -37 96 -135
109 -228 15 -109 6 -243 -22 -306 -53 -123 -201 -203 -376 -203 -80 0 -83 1
-108 31 -43 51 -57 86 -63 158 -9 107 23 159 214 348 87 86 153 159 153 170 0
27 -14 43 -46 53 -23 8 -15 9 37 7 55 -2 73 -8 102 -30z m-186 10 c-220 -143
-286 -198 -351 -286 -63 -86 -90 -149 -95 -231 l-6 -75 -31 55 c-103 181 -102
172 -26 272 59 78 155 157 248 203 75 37 199 74 249 74 27 0 28 -1 12 -12z
m-1472 -292 c37 -55 103 -146 147 -202 43 -57 76 -103 74 -103 -52 0 -586 136
-586 149 0 3 28 55 63 115 l62 109 80 22 c44 12 83 19 86 16 3 -3 36 -51 74
-106z m-510 -32 c-15 -27 -31 -52 -35 -56 -5 -5 -60 11 -125 35 l-116 43 131
7 c72 3 134 9 137 12 4 3 13 6 21 6 10 0 7 -12 -13 -47z m3369 -149 c16 -6 18
-15 13 -70 -9 -112 -58 -173 -192 -236 -62 -29 -80 -32 -158 -33 -87 0 -89 1
-113 30 -31 38 -49 95 -40 129 7 29 139 140 193 163 72 29 240 40 297 17z"/>
<path d="M12386 4579 c-14 -17 -26 -43 -26 -57 0 -62 22 -206 50 -335 16 -76
30 -142 30 -148 0 -5 -30 16 -67 46 -77 64 -239 148 -328 170 -146 37 -253 5
-313 -95 -39 -66 -51 -107 -66 -222 -11 -84 -11 -86 -31 -71 -41 32 -183 92
-265 113 -117 30 -297 38 -371 17 -30 -9 -71 -27 -90 -40 -50 -33 -96 -108
-110 -178 -6 -32 -13 -59 -14 -59 -1 0 -55 -16 -121 -35 -65 -19 -119 -35
-120 -35 -1 0 -30 50 -65 111 -108 188 -173 243 -305 255 -96 9 -149 -7 -200
-61 -75 -77 -78 -180 -9 -280 43 -63 85 -96 196 -154 l89 -47 -25 -24 c-14
-14 -40 -53 -57 -87 -27 -56 -31 -73 -30 -148 l0 -85 -27 6 c-71 16 -114 48
-148 109 -18 33 -33 73 -33 88 0 96 -77 349 -123 406 -17 22 -43 58 -57 81
-49 81 -170 153 -347 206 -120 36 -332 45 -428 19 -196 -53 -286 -227 -272
-525 l5 -117 -52 14 c-55 15 -256 32 -375 33 l-73 0 63 68 c155 164 219 276
227 399 12 183 -89 331 -265 389 -121 40 -428 16 -657 -51 -186 -54 -295 -113
-343 -184 -27 -40 -31 -110 -9 -163 20 -47 110 -167 291 -388 284 -347 275
-334 275 -394 0 -105 59 -280 141 -419 56 -95 177 -215 253 -252 116 -56 278
-42 400 35 27 17 76 57 109 88 60 58 205 241 272 346 l36 57 30 -21 c90 -65
259 -102 459 -102 150 0 202 12 278 64 37 25 85 80 111 125 5 9 21 5 59 -14
44 -22 71 -27 155 -31 l102 -4 25 -40 c59 -94 205 -196 312 -218 103 -20 259
12 388 81 71 38 158 126 166 169 4 17 10 32 13 35 4 2 27 -10 52 -26 69 -47
148 -85 229 -110 60 -19 98 -24 191 -24 111 0 117 1 152 28 73 55 110 130 131
262 l11 73 48 -55 c68 -79 131 -128 219 -173 95 -47 170 -64 268 -58 111 6
197 59 273 167 9 14 18 23 19 20 2 -2 19 -35 38 -73 61 -125 182 -232 281
-251 67 -12 201 54 315 158 59 53 71 84 50 126 -31 59 -68 55 -218 -20 -112
-56 -123 -60 -146 -47 -66 34 -161 199 -206 354 -22 75 -26 108 -26 225 0 179
-15 252 -110 544 -43 132 -90 280 -105 329 -32 107 -57 136 -114 136 -32 0
-44 -6 -65 -31z m-4196 -441 c128 -48 174 -173 111 -303 -39 -79 -70 -112
-166 -176 -77 -50 -223 -186 -258 -239 l-16 -25 -33 40 c-18 22 -104 125 -191
230 -173 207 -247 302 -247 316 0 14 108 64 210 97 215 69 492 97 590 60z
m3821 -58 c127 -39 321 -184 354 -264 41 -98 -14 -251 -137 -380 -56 -58 -57
-59 -101 -53 -36 5 -48 3 -62 -13 -41 -46 21 -105 125 -117 40 -5 56 -1 100
23 72 39 160 139 212 240 l44 85 33 -121 c39 -143 37 -164 -22 -252 -68 -102
-132 -131 -237 -110 -168 35 -314 174 -396 376 -104 256 -120 497 -37 588 21
23 46 23 124 -2z m-2690 -225 c133 -35 249 -96 275 -146 42 -82 -12 -310 -96
-405 -34 -39 -36 -51 -14 -82 32 -45 107 -19 183 64 l50 54 25 -56 c31 -68 32
-102 6 -153 -47 -92 -110 -116 -290 -108 -245 11 -378 74 -486 228 -72 102
-96 180 -95 315 0 131 29 235 75 273 52 43 232 51 367 16z m2010 -35 c141 -37
239 -91 239 -132 0 -58 -120 -172 -254 -239 -74 -37 -84 -39 -167 -39 -49 0
-89 3 -89 6 0 3 4 14 10 24 7 14 5 24 -10 42 -18 22 -20 23 -49 6 -17 -9 -33
-13 -35 -9 -14 21 -28 164 -23 224 11 125 48 150 202 143 55 -3 134 -15 176
-26z m-1059 -26 c40 -28 168 -170 168 -186 0 -4 -11 -10 -24 -14 -47 -11 -264
116 -300 176 -29 50 -16 63 54 58 46 -3 70 -11 102 -34z m557 -397 c6 -16 8
-27 4 -25 -71 33 -243 124 -243 129 0 3 44 27 98 52 l97 46 17 -87 c9 -48 21
-100 27 -115z m896 131 c10 -29 27 -74 38 -101 18 -43 18 -49 4 -65 -8 -9 -31
-69 -50 -134 -21 -70 -45 -130 -62 -152 -25 -33 -31 -36 -80 -36 -117 0 -264
56 -385 146 l-65 49 84 7 c68 6 99 14 165 46 45 22 109 60 143 86 67 51 159
147 176 183 6 13 11 23 13 23 1 0 10 -24 19 -52z m-1077 -238 c270 -131 345
-196 308 -268 -52 -102 -302 -160 -421 -99 -76 38 -140 100 -174 168 -56 112
-51 186 17 261 29 32 40 38 60 33 13 -3 108 -46 210 -95z m-2098 -10 c41 -6
108 -20 148 -32 61 -18 78 -28 100 -57 14 -20 38 -52 53 -71 26 -36 27 -36 9
-70 -24 -46 -166 -216 -255 -306 -107 -107 -221 -153 -308 -125 -20 7 -59 33
-87 58 -45 40 -50 49 -50 86 -1 128 -51 278 -133 405 -26 40 -47 77 -47 81 0
28 421 50 570 31z"/>
<path d="M19355 4505 c-5 -2 -26 -6 -46 -9 -20 -4 -49 -18 -63 -33 -40 -40
-35 -77 23 -165 54 -83 82 -108 112 -101 36 10 43 43 20 96 -23 54 -28 50 69
67 103 18 127 28 140 60 13 32 2 63 -30 80 -17 9 -201 13 -225 5z"/>
<path d="M1619 4201 c-41 -41 -39 -73 25 -329 29 -119 74 -303 100 -408 119
-492 243 -749 434 -899 80 -64 146 -94 243 -111 181 -31 302 33 363 195 29 76
56 176 56 206 0 12 3 24 6 28 3 3 58 -47 122 -111 168 -169 323 -268 481 -308
98 -25 248 -16 323 18 72 33 138 95 184 169 19 33 37 59 39 59 1 0 25 -18 51
-41 60 -49 208 -124 289 -144 33 -8 103 -15 161 -15 165 0 312 47 405 129 l44
38 65 -58 c75 -69 172 -122 261 -145 78 -20 208 -14 325 16 220 56 531 274
603 423 90 186 1 455 -234 705 -175 186 -463 323 -685 326 -83 1 -101 -2 -144
-24 -84 -42 -91 -59 -91 -220 l0 -138 -77 -80 c-42 -44 -84 -91 -93 -105 -9
-14 -32 -35 -50 -46 -39 -23 -36 -24 -102 74 -120 180 -223 459 -211 574 3 31
4 31 72 -54 38 -47 82 -104 98 -126 23 -32 34 -40 55 -37 14 2 32 12 39 23 12
18 11 26 -7 60 -27 51 -113 167 -206 277 -83 98 -116 114 -162 81 -42 -31 -62
-83 -68 -182 -9 -143 22 -289 99 -466 66 -151 185 -331 285 -431 46 -46 51
-56 57 -110 6 -49 25 -107 62 -191 3 -7 -7 -24 -23 -39 -88 -82 -277 -124
-420 -94 -81 18 -81 18 -14 111 98 137 151 307 138 438 -16 156 -195 374 -384
468 -89 44 -189 56 -242 28 -18 -9 -37 -13 -41 -8 -4 4 -28 36 -54 70 -118
157 -290 312 -367 333 -80 22 -149 -29 -149 -110 0 -43 52 -195 76 -221 37
-41 114 -9 114 48 0 27 0 27 46 -17 56 -55 149 -169 195 -240 l34 -53 0 -181
c0 -206 9 -251 78 -399 l40 -88 -16 -52 c-24 -74 -69 -141 -118 -174 -40 -26
-49 -28 -148 -28 -101 0 -109 2 -183 37 -42 20 -105 56 -140 79 -87 59 -237
213 -336 344 -69 93 -87 124 -113 205 -42 125 -81 210 -108 235 -28 24 -84 25
-110 1 -29 -26 -44 -81 -37 -129 4 -22 34 -92 66 -155 l60 -115 0 -115 c0
-124 -16 -208 -56 -300 -31 -71 -68 -88 -157 -72 -158 29 -298 169 -399 403
-51 118 -119 359 -112 395 4 18 -4 51 -21 93 -23 57 -93 304 -161 569 -18 70
-31 101 -50 118 -34 30 -70 28 -105 -7z m4050 -544 c142 -80 295 -246 373
-406 50 -102 63 -202 33 -264 -22 -47 -97 -116 -213 -195 -171 -117 -316 -167
-470 -160 -105 4 -167 30 -254 108 -84 75 -101 102 -93 149 l6 38 79 -1 c70
-1 81 2 105 24 77 70 89 223 35 439 -17 69 -27 127 -22 130 154 109 299 191
327 184 11 -3 53 -24 94 -46z m-1594 -96 c78 -36 172 -123 232 -214 43 -64 48
-78 51 -138 5 -74 -14 -152 -55 -233 -34 -67 -114 -186 -125 -186 -5 0 -34 24
-65 52 -54 52 -55 53 -49 98 4 25 11 82 17 128 15 133 -11 252 -93 416 -22 43
-37 84 -34 92 8 22 56 16 121 -15z m1049 -260 c18 -80 22 -211 5 -211 -5 0
-30 5 -54 11 -36 9 -48 19 -75 61 l-31 51 26 37 c38 54 95 120 105 120 5 0 16
-31 24 -69z"/>
<path d="M7000 3593 c-88 -17 -334 -85 -382 -106 -86 -38 -111 -104 -58 -157
24 -24 87 -27 116 -5 10 8 76 33 146 55 229 73 284 97 298 131 11 26 10 34 -7
57 -20 28 -57 36 -113 25z"/>
<path d="M13830 3573 c-133 -15 -454 -65 -499 -79 -69 -20 -111 -60 -111 -106
0 -51 19 -69 129 -122 98 -49 101 -49 121 -31 26 23 26 49 -1 76 -11 11 -19
22 -17 24 2 2 111 25 243 50 260 51 285 61 285 117 0 17 -10 39 -25 53 -24 25
-40 27 -125 18z"/>
</g>
</svg>
