<?xml version="1.0" encoding="utf-8"?>
<!-- Svg Vector Icons : http://www.onlinewebfonts.com/icon -->
<!DOCTYPE svg PUBLIC "-//W3C//DTD SVG 1.1//EN" "http://www.w3.org/Graphics/SVG/1.1/DTD/svg11.dtd">
<svg version="1.1" xmlns="http://www.w3.org/2000/svg" xmlns:xlink="http://www.w3.org/1999/xlink" x="0px" y="0px" viewBox="0 0 1000 1000" enable-background="new 0 0 1000 1000" xml:space="preserve">
<metadata> Svg Vector Icons : http://www.onlinewebfonts.com/icon </metadata>
<g><g><g><path d="M700.8,218.4V95.3c0-24.4-19.7-44.1-44.1-44.1H316.4c-25.1,0-45.4,20.3-45.4,45.4v121.8H93.8c-46.3,0-83.8,37.5-83.8,83.8v562.9c0,46.2,37.5,83.8,83.8,83.8h812.5c46.3,0,83.8-37.5,83.8-83.8V302.2c0-46.3-37.5-83.8-83.8-83.8H700.8z M305.1,123.6c0-21.2,17.2-38.4,38.4-38.4h284.9c21.2,0,38.4,17.2,38.4,38.4v94.8h-28.6v-71.5c0-18.8-15.3-34.1-34.1-34.1H367.7c-18.8,0-34.1,15.3-34.1,34.1v71.5h-28.5V123.6z M367.7,209.3v-62.4h236.4v62.4H367.7z M776.1,269.5v628.2H220.3V269.5H776.1z M61.1,536.1l48.9-23.6l-7.5,99.5l-41.4-24.2V536.1z M61.1,627.2l71.3,41.7l16-212.8l-87.3,42.2V327.7c0-32.2,26.1-58.2,58.2-58.2h49.9v628.2h-24.4c-46.3,0-83.8-37.5-83.8-83.8V627.2z M827.2,897.7V269.5h28c46.3,0,83.8,37.5,83.8,83.8v261.6H857v129h81.9v70c0,46.3-37.5,83.8-83.8,83.8L827.2,897.7L827.2,897.7z M938.9,709.9H891v-60.9h47.8V709.9z"/><path d="M348.8,832.5c6.8,4.6,13,8.7,17.8,12.3h1.6c4.7-3.7,10.9-7.8,17.8-12.3c33.5-22.3,89.6-59.6,61.6-110.7c-11.7-21.4-27.2-27.5-38-28.9c-16.5-2-31.5,5.3-42.1,12.7c-10.7-7.3-25.7-14.7-42.1-12.7c-10.9,1.4-26.3,7.5-38,28.9C259.3,772.9,315.3,810.2,348.8,832.5z M317.1,738.2c3.8-7,8-10.9,12.4-11.4c9.3-1.2,23.1,9.5,28.2,14.9l2.6,2.6c1.9,1.9,4.4,3,7.1,3c2.7,0,5.2-1.1,7.1-3l2.6-2.7c4.8-5.2,18.5-15.9,28.1-14.9c4.4,0.5,8.6,4.4,12.4,11.4c10,18.2-6.1,35.3-40.4,59.1c-5.9,4.1-13.8,4.1-19.7,0C323.2,773.5,307.2,756.3,317.1,738.2z"/><path d="M693.6,381.2L535,282.8l-68.8,111l158.7,98.3L693.6,381.2z M513.1,382.8l32.9-53.1l100.8,62.4l-32.9,53.1L513.1,382.8z"/></g></g><g></g><g></g><g></g><g></g><g></g><g></g><g></g><g></g><g></g><g></g><g></g><g></g><g></g><g></g><g></g></g>
</svg>