<?xml version="1.0" encoding="UTF-8"?>
<!DOCTYPE svg PUBLIC "-//W3C//DTD SVG 1.1//EN" "http://www.w3.org/Graphics/SVG/1.1/DTD/svg11.dtd">
<svg xmlns="http://www.w3.org/2000/svg" version="1.1" width="512px" height="512px" style="shape-rendering:geometricPrecision; text-rendering:geometricPrecision; image-rendering:optimizeQuality; fill-rule:evenodd; clip-rule:evenodd" xmlns:xlink="http://www.w3.org/1999/xlink">
<g><path style="opacity:0.962" fill="#58caf6" d="M 247.5,68.5 C 258.046,68.2084 268.379,68.8751 278.5,70.5C 275.23,75.4397 271.23,79.7731 266.5,83.5C 256.809,83.3417 247.143,83.675 237.5,84.5C 241.963,79.5354 246.63,74.7021 251.5,70C 249.942,69.79 248.609,69.29 247.5,68.5 Z"/></g>
<g><path style="opacity:0.961" fill="#4dd1f9" d="M 247.5,68.5 C 248.609,69.29 249.942,69.79 251.5,70C 246.63,74.7021 241.963,79.5354 237.5,84.5C 228.656,85.4024 219.989,87.0691 211.5,89.5C 216.774,82.8886 222.44,76.5553 228.5,70.5C 234.833,69.8333 241.167,69.1667 247.5,68.5 Z"/></g>
<g><path style="opacity:0.948" fill="#64c3f2" d="M 278.5,70.5 C 288.894,71.112 298.894,73.112 308.5,76.5C 304.743,81.2619 300.41,85.2619 295.5,88.5C 285.791,86.3547 276.125,84.688 266.5,83.5C 271.23,79.7731 275.23,75.4397 278.5,70.5 Z"/></g>
<g><path style="opacity:0.953" fill="#43d8fd" d="M 228.5,70.5 C 222.44,76.5553 216.774,82.8886 211.5,89.5C 188.668,95.2509 168.001,105.251 149.5,119.5C 149.062,119.565 148.728,119.399 148.5,119C 160.702,106.965 172.702,94.7985 184.5,82.5C 198.642,76.6763 213.309,72.6763 228.5,70.5 Z"/></g>
<g><path style="opacity:0.948" fill="#6ebeef" d="M 308.5,76.5 C 313.715,77.5715 318.715,79.2382 323.5,81.5C 320.021,86.3237 315.687,89.9904 310.5,92.5C 305.501,91.167 300.501,89.8336 295.5,88.5C 300.41,85.2619 304.743,81.2619 308.5,76.5 Z"/></g>
<g><path style="opacity:0.973" fill="#3fdafe" d="M 184.5,82.5 C 172.702,94.7985 160.702,106.965 148.5,119C 148.728,119.399 149.062,119.565 149.5,119.5C 121.105,142.284 101.105,170.951 89.5,205.5C 83.5353,210.964 77.7019,216.63 72,222.5C 71.6012,222.272 71.4346,221.938 71.5,221.5C 85.2816,155.721 122.948,109.388 184.5,82.5 Z"/></g>
<g><path style="opacity:0.972" fill="#77b7eb" d="M 323.5,81.5 C 330.266,83.7176 336.599,86.7176 342.5,90.5C 339.167,94.1667 335.833,97.8333 332.5,101.5C 325.091,98.4801 317.757,95.4801 310.5,92.5C 315.687,89.9904 320.021,86.3237 323.5,81.5 Z"/></g>
<g><path style="opacity:0.961" fill="#81b3e9" d="M 342.5,90.5 C 347.32,92.0741 351.653,94.4074 355.5,97.5C 351.798,101.203 347.798,104.537 343.5,107.5C 339.665,105.75 335.999,103.75 332.5,101.5C 335.833,97.8333 339.167,94.1667 342.5,90.5 Z"/></g>
<g><path style="opacity:0.948" fill="#8cade6" d="M 355.5,97.5 C 361.891,101.356 367.891,105.689 373.5,110.5C 370.14,114.527 366.473,118.194 362.5,121.5C 356.143,116.802 349.81,112.135 343.5,107.5C 347.798,104.537 351.798,101.203 355.5,97.5 Z"/></g>
<g><path style="opacity:0.949" fill="#97a5e1" d="M 373.5,110.5 C 380.464,115.797 386.798,121.797 392.5,128.5C 388.229,131.101 384.563,134.434 381.5,138.5C 375.465,132.463 369.131,126.796 362.5,121.5C 366.473,118.194 370.14,114.527 373.5,110.5 Z"/></g>
<g><path style="opacity:0.961" fill="#a49ddd" d="M 392.5,128.5 C 397.915,133.579 402.582,139.246 406.5,145.5C 402.006,148.65 398.672,152.65 396.5,157.5C 391.752,151.024 386.752,144.691 381.5,138.5C 384.563,134.434 388.229,131.101 392.5,128.5 Z"/></g>
<g><path style="opacity:0.986" fill="#6ac0f0" d="M 253.5,142.5 C 254.609,143.29 255.942,143.79 257.5,144C 252.63,148.702 247.963,153.535 243.5,158.5C 217.509,165.158 201.175,181.491 194.5,207.5C 189.443,212.562 184.11,217.228 178.5,221.5C 180.088,182.471 199.421,156.971 236.5,145C 242.126,143.839 247.793,143.006 253.5,142.5 Z"/></g>
<g><path style="opacity:0.965" fill="#77b8ec" d="M 253.5,142.5 C 265.13,142.425 276.13,144.758 286.5,149.5C 285.769,149.942 284.769,150.109 283.5,150C 280.181,154.167 276.181,157.333 271.5,159.5C 262.223,157.439 252.89,157.105 243.5,158.5C 247.963,153.535 252.63,148.702 257.5,144C 255.942,143.79 254.609,143.29 253.5,142.5 Z"/></g>
<g><path style="opacity:0.966" fill="#82b1e8" d="M 286.5,149.5 C 294.198,152.343 300.865,156.676 306.5,162.5C 302.833,165.833 299.167,169.167 295.5,172.5C 288.328,166.582 280.328,162.248 271.5,159.5C 276.181,157.333 280.181,154.167 283.5,150C 284.769,150.109 285.769,149.942 286.5,149.5 Z"/></g>
<g><path style="opacity:0.988" fill="#ad97da" d="M 406.5,145.5 C 410.189,149.865 413.522,154.531 416.5,159.5C 412.227,162.434 408.227,165.767 404.5,169.5C 401.474,165.795 398.808,161.795 396.5,157.5C 398.672,152.65 402.006,148.65 406.5,145.5 Z"/></g>
<g><path style="opacity:0.955" fill="#b692d7" d="M 416.5,159.5 C 419.755,165.008 422.755,170.675 425.5,176.5C 420.895,179.436 416.895,183.102 413.5,187.5C 410.519,181.539 407.519,175.539 404.5,169.5C 408.227,165.767 412.227,162.434 416.5,159.5 Z"/></g>
<g><path style="opacity:0.955" fill="#92a8e3" d="M 306.5,162.5 C 314.721,169.389 321.054,177.722 325.5,187.5C 320.676,190.979 317.01,195.313 314.5,200.5C 310.541,189.544 304.208,180.21 295.5,172.5C 299.167,169.167 302.833,165.833 306.5,162.5 Z"/></g>
<g><path style="opacity:0.966" fill="#9ea0de" d="M 325.5,187.5 C 328.098,193.223 329.764,199.223 330.5,205.5C 326.167,209.5 321.833,213.5 317.5,217.5C 316.778,211.782 315.778,206.115 314.5,200.5C 317.01,195.313 320.676,190.979 325.5,187.5 Z"/></g>
<g><path style="opacity:0.966" fill="#c38bd3" d="M 425.5,176.5 C 429.34,184.516 432.34,192.85 434.5,201.5C 430.167,205.167 426.167,209.167 422.5,213.5C 419.527,204.919 416.527,196.252 413.5,187.5C 416.895,183.102 420.895,179.436 425.5,176.5 Z"/></g>
<g><path style="opacity:0.963" fill="#cb86d0" d="M 434.5,201.5 C 436.407,205.901 437.74,210.567 438.5,215.5C 433.833,219.5 429.5,223.833 425.5,228.5C 424.139,223.696 423.139,218.696 422.5,213.5C 426.167,209.167 430.167,205.167 434.5,201.5 Z"/></g>
<g><path style="opacity:0.95" fill="#4dd2fa" d="M 89.5,205.5 C 86.4973,217.84 84.164,230.173 82.5,242.5C 82.6495,241.448 82.4828,240.448 82,239.5C 77.2979,244.37 72.4646,249.037 67.5,253.5C 67.8919,242.579 69.2252,231.912 71.5,221.5C 71.4346,221.938 71.6012,222.272 72,222.5C 77.7019,216.63 83.5353,210.964 89.5,205.5 Z"/></g>
<g><path style="opacity:0.965" fill="#75b9ec" d="M 194.5,207.5 C 193.106,217.955 193.772,228.288 196.5,238.5C 195.448,238.351 194.448,238.517 193.5,239C 190.631,242.038 187.631,244.871 184.5,247.5C 180.952,239.302 178.952,230.635 178.5,221.5C 184.11,217.228 189.443,212.562 194.5,207.5 Z"/></g>
<g><path style="opacity:0.973" fill="#d181cd" d="M 438.5,215.5 C 439.598,220.092 440.265,224.759 440.5,229.5C 436.537,233.964 432.37,238.298 428,242.5C 427.722,241.584 427.222,240.918 426.5,240.5C 426.167,236.5 425.833,232.5 425.5,228.5C 429.5,223.833 433.833,219.5 438.5,215.5 Z"/></g>
<g><path style="opacity:0.959" fill="#d97dcb" d="M 440.5,229.5 C 442.371,239.283 442.871,249.283 442,259.5C 441.535,260.931 440.701,262.097 439.5,263C 435.756,263.929 432.256,263.429 429,261.5C 427.695,254.593 426.862,247.593 426.5,240.5C 427.222,240.918 427.722,241.584 428,242.5C 432.37,238.298 436.537,233.964 440.5,229.5 Z"/></g>
<g><path style="opacity:0.987" fill="#ab98da" d="M 330.5,205.5 C 333.229,216.482 332.896,227.482 329.5,238.5C 310.167,257.5 290.833,276.5 271.5,295.5C 267.167,295.5 262.833,295.5 258.5,295.5C 258.389,294.883 258.056,294.383 257.5,294C 262.703,288.965 267.703,283.798 272.5,278.5C 300.845,268.138 315.845,247.804 317.5,217.5C 321.833,213.5 326.167,209.5 330.5,205.5 Z"/></g>
<g><path style="opacity:0.962" fill="#81b2e8" d="M 196.5,238.5 C 199.296,244.755 202.629,250.755 206.5,256.5C 202.767,260.227 199.434,264.227 196.5,268.5C 191.225,262.29 187.225,255.29 184.5,247.5C 187.631,244.871 190.631,242.038 193.5,239C 194.448,238.517 195.448,238.351 196.5,238.5 Z"/></g>
<g><path style="opacity:0.942" fill="#b195d8" d="M 329.5,238.5 C 324.157,259.008 312.49,274.841 294.5,286C 296.058,286.21 297.391,286.71 298.5,287.5C 294.767,291.227 291.434,295.227 288.5,299.5C 282.797,297.896 277.13,296.563 271.5,295.5C 290.833,276.5 310.167,257.5 329.5,238.5 Z"/></g>
<g><path style="opacity:0.951" fill="#59caf5" d="M 82.5,242.5 C 82.5,251.5 82.5,260.5 82.5,269.5C 78.8704,273.631 75.037,277.631 71,281.5C 70.5172,282.448 70.3505,283.448 70.5,284.5C 68.7447,274.385 67.7447,264.051 67.5,253.5C 72.4646,249.037 77.2979,244.37 82,239.5C 82.4828,240.448 82.6495,241.448 82.5,242.5 Z"/></g>
<g><path style="opacity:0.947" fill="#8bace5" d="M 206.5,256.5 C 209.805,260.141 213.138,263.808 216.5,267.5C 213.167,271.167 209.833,274.833 206.5,278.5C 202.833,275.5 199.5,272.167 196.5,268.5C 199.434,264.227 202.767,260.227 206.5,256.5 Z"/></g>
<g><path style="opacity:0.97" fill="#97a5e1" d="M 216.5,267.5 C 223.466,272.482 231.132,276.148 239.5,278.5C 233.5,285.5 227.5,292.5 221.5,299.5C 196.366,307.968 177.699,323.968 165.5,347.5C 158.446,354.558 151.112,361.225 143.5,367.5C 144.411,361.507 146.077,355.84 148.5,350.5C 170.5,330.172 192.167,308.839 213.5,286.5C 213.918,285.778 214.584,285.278 215.5,285C 212.079,283.301 209.079,281.135 206.5,278.5C 209.833,274.833 213.167,271.167 216.5,267.5 Z"/></g>
<g><path style="opacity:0.938" fill="#a39ddd" d="M 239.5,278.5 C 250.487,281.131 261.487,281.131 272.5,278.5C 267.703,283.798 262.703,288.965 257.5,294C 258.056,294.383 258.389,294.883 258.5,295.5C 245.924,294.81 233.591,296.143 221.5,299.5C 227.5,292.5 233.5,285.5 239.5,278.5 Z"/></g>
<g><path style="opacity:0.98" fill="#92a7e2" d="M 213.5,286.5 C 192.167,308.839 170.5,330.172 148.5,350.5C 157.004,325.819 172.671,306.986 195.5,294C 201.24,290.811 207.24,288.311 213.5,286.5 Z"/></g>
<g><path style="opacity:0.956" fill="#ba8fd5" d="M 298.5,287.5 C 304.598,289.384 310.265,292.051 315.5,295.5C 311.833,298.833 308.167,302.167 304.5,305.5C 299.244,303.303 293.911,301.303 288.5,299.5C 291.434,295.227 294.767,291.227 298.5,287.5 Z"/></g>
<g><path style="opacity:0.955" fill="#69c0f0" d="M 82.5,269.5 C 84.2449,282.891 86.9115,296.224 90.5,309.5C 87.5643,314.105 83.8976,318.105 79.5,321.5C 75.0891,309.523 72.0891,297.189 70.5,284.5C 70.3505,283.448 70.5172,282.448 71,281.5C 75.037,277.631 78.8704,273.631 82.5,269.5 Z"/></g>
<g><path style="opacity:0.953" fill="#c38bd3" d="M 315.5,295.5 C 320.686,297.685 325.353,300.685 329.5,304.5C 326.5,308.5 323.5,312.5 320.5,316.5C 315.477,312.327 310.144,308.66 304.5,305.5C 308.167,302.167 311.833,298.833 315.5,295.5 Z"/></g>
<g><path style="opacity:0.932" fill="#ed70c4" d="M 425.5,297.5 C 431.744,296.247 435.411,298.747 436.5,305C 435.744,307.856 434.911,310.689 434,313.5C 431.487,317.212 427.987,318.378 423.5,317C 421.667,316.5 420.5,315.333 420,313.5C 419.379,307.193 421.212,301.86 425.5,297.5 Z"/></g>
<g><path style="opacity:0.974" fill="#cf83ce" d="M 329.5,304.5 C 336.203,310.202 342.203,316.536 347.5,323.5C 343.808,326.862 340.141,330.195 336.5,333.5C 331.871,327.203 326.538,321.537 320.5,316.5C 323.5,312.5 326.5,308.5 329.5,304.5 Z"/></g>
<g><path style="opacity:0.962" fill="#77b8eb" d="M 90.5,309.5 C 93.4801,316.757 96.4801,324.091 99.5,331.5C 97.3278,336.35 93.9945,340.35 89.5,343.5C 85.6186,336.405 82.2852,329.071 79.5,321.5C 83.8976,318.105 87.5643,314.105 90.5,309.5 Z"/></g>
<g><path style="opacity:0.954" fill="#dc7bca" d="M 347.5,323.5 C 351.921,329.334 355.588,335.668 358.5,342.5C 355.833,347.167 352.167,350.833 347.5,353.5C 344.371,346.579 340.705,339.912 336.5,333.5C 340.141,330.195 343.808,326.862 347.5,323.5 Z"/></g>
<g><path style="opacity:0.948" fill="#82b2e8" d="M 99.5,331.5 C 103.798,338.811 108.131,346.144 112.5,353.5C 110.594,358.408 107.261,362.075 102.5,364.5C 97.7704,357.765 93.4371,350.765 89.5,343.5C 93.9945,340.35 97.3278,336.35 99.5,331.5 Z"/></g>
<g><path style="opacity:0.976" fill="#f56bc2" d="M 411.5,354.5 C 388.918,375.58 366.751,397.247 345,419.5C 344.536,420.094 344.369,420.761 344.5,421.5C 337.842,425.33 330.842,428.33 323.5,430.5C 338.527,415.14 353.527,399.807 368.5,384.5C 372.675,382.727 376.508,379.727 380,375.5C 386.88,367.621 393.38,359.455 399.5,351C 404.798,348.259 408.798,349.426 411.5,354.5 Z"/></g>
<g><path style="opacity:0.957" fill="#e873c6" d="M 358.5,342.5 C 362.682,351.381 365.682,360.714 367.5,370.5C 363.467,375.534 358.8,379.867 353.5,383.5C 352.907,373.204 350.907,363.204 347.5,353.5C 352.167,350.833 355.833,347.167 358.5,342.5 Z"/></g>
<g><path style="opacity:0.968" fill="#9ea0df" d="M 165.5,347.5 C 161.586,357.154 158.92,367.154 157.5,377.5C 150.527,385.14 143.194,392.473 135.5,399.5C 130.874,396.542 126.874,392.876 123.5,388.5C 127.167,385.5 130.5,382.167 133.5,378.5C 136.13,380.628 138.63,382.961 141,385.5C 141.944,379.502 142.777,373.502 143.5,367.5C 151.112,361.225 158.446,354.558 165.5,347.5 Z"/></g>
<g><path style="opacity:0.905" fill="#fa68c1" d="M 411.5,354.5 C 411.752,357.32 411.252,359.986 410,362.5C 392.68,387.328 370.846,406.994 344.5,421.5C 344.369,420.761 344.536,420.094 345,419.5C 366.751,397.247 388.918,375.58 411.5,354.5 Z"/></g>
<g><path style="opacity:0.956" fill="#92a8e3" d="M 112.5,353.5 C 118.776,362.349 125.776,370.682 133.5,378.5C 130.5,382.167 127.167,385.5 123.5,388.5C 115.567,381.29 108.567,373.29 102.5,364.5C 107.261,362.075 110.594,358.408 112.5,353.5 Z"/></g>
<g><path style="opacity:0.961" fill="#ef6fc4" d="M 367.5,370.5 C 367.833,375.167 368.167,379.833 368.5,384.5C 353.527,399.807 338.527,415.14 323.5,430.5C 310.486,436.172 296.819,439.839 282.5,441.5C 282.389,440.883 282.056,440.383 281.5,440C 286.5,435 291.5,430 296.5,425C 295.906,424.536 295.239,424.369 294.5,424.5C 315.254,419.125 334.587,410.459 352.5,398.5C 353.494,393.544 353.827,388.544 353.5,383.5C 358.8,379.867 363.467,375.534 367.5,370.5 Z"/></g>
<g><path style="opacity:0.945" fill="#a79bdc" d="M 157.5,377.5 C 157.17,384.532 157.503,391.532 158.5,398.5C 159.522,398.855 160.189,399.522 160.5,400.5C 157.167,404.167 153.833,407.833 150.5,411.5C 144.913,408.21 139.913,404.21 135.5,399.5C 143.194,392.473 150.527,385.14 157.5,377.5 Z"/></g>
<g><path style="opacity:0.969" fill="#b195d9" d="M 160.5,400.5 C 165.841,403.503 171.175,406.503 176.5,409.5C 173.35,413.994 169.35,417.328 164.5,419.5C 159.535,417.351 154.868,414.684 150.5,411.5C 153.833,407.833 157.167,404.167 160.5,400.5 Z"/></g>
<g><path style="opacity:0.965" fill="#bb8fd6" d="M 176.5,409.5 C 182.352,411.928 188.019,414.594 193.5,417.5C 189.5,420.833 185.833,424.5 182.5,428.5C 175.903,426.535 169.903,423.535 164.5,419.5C 169.35,417.328 173.35,413.994 176.5,409.5 Z"/></g>
<g><path style="opacity:0.974" fill="#c18bd3" d="M 193.5,417.5 C 197.612,418.527 201.612,419.861 205.5,421.5C 201.767,425.227 198.434,429.227 195.5,433.5C 190.856,432.401 186.522,430.734 182.5,428.5C 185.833,424.5 189.5,420.833 193.5,417.5 Z"/></g>
<g><path style="opacity:0.962" fill="#ca86d0" d="M 205.5,421.5 C 212.55,423.043 219.55,424.709 226.5,426.5C 222.833,430.833 218.833,434.833 214.5,438.5C 207.95,437.613 201.617,435.946 195.5,433.5C 198.434,429.227 201.767,425.227 205.5,421.5 Z"/></g>
<g><path style="opacity:0.936" fill="#df79c9" d="M 294.5,424.5 C 295.239,424.369 295.906,424.536 296.5,425C 291.5,430 286.5,435 281.5,440C 282.056,440.383 282.389,440.883 282.5,441.5C 269.917,443.19 257.25,443.856 244.5,443.5C 248.5,438.5 252.5,433.5 256.5,428.5C 269.305,428.411 281.972,427.077 294.5,424.5 Z"/></g>
<g><path style="opacity:0.948" fill="#d57fcc" d="M 226.5,426.5 C 236.444,427.913 246.444,428.58 256.5,428.5C 252.5,433.5 248.5,438.5 244.5,443.5C 234.222,442.749 224.222,441.082 214.5,438.5C 218.833,434.833 222.833,430.833 226.5,426.5 Z"/></g>
</svg>
